<?xml version="1.0" encoding="utf-8"?>
<!-- Generator: Adobe Illustrator 25.4.1, SVG Export Plug-In . SVG Version: 6.00 Build 0)  -->
<svg version="1.0" id="Layer_1" xmlns="http://www.w3.org/2000/svg" xmlns:xlink="http://www.w3.org/1999/xlink" x="0px" y="0px"
	 viewBox="0 0 1200 800" style="enable-background:new 0 0 1200 800;" xml:space="preserve">
<style type="text/css">
	.st0{fill:#FFFFFF;}
</style>
<path class="st0" d="M307.1,259.4c-10.8,12.8-28.1,22.9-45.4,21.5c-2.2-17.3,6.3-35.7,16.2-47.1c10.8-13.2,29.8-22.5,45.1-23.3
	C324.8,228.5,317.8,246.2,307.1,259.4 M322.8,284.2c-25.1-1.4-46.5,14.2-58.4,14.2c-12.1,0-30.3-13.5-50.1-13.2
	c-25.8,0.4-49.8,15-62.9,38.2c-27,46.5-7,115.4,19.1,153.3c12.8,18.8,28.1,39.3,48.3,38.6c19.1-0.7,26.7-12.4,49.8-12.4
	c23.3,0,29.9,12.4,50.1,12.1c20.9-0.4,34.1-18.8,46.9-37.5c14.6-21.3,20.6-42,20.9-43.1c-0.4-0.4-40.4-15.7-40.7-61.8
	c-0.4-38.6,31.6-57,33-58.1C360.7,287.8,332.5,285,322.8,284.2 M467.6,232v281.1h43.6v-96.1h60.4c55.2,0,93.9-37.9,93.9-92.7
	s-38-92.3-92.5-92.3L467.6,232z M511.2,268.7h50.3c37.9,0,59.5,20.2,59.5,55.7s-21.6,55.9-59.7,55.9h-50.1L511.2,268.7z
	 M745.3,515.2c27.4,0,52.8-13.9,64.4-35.9h0.9v33.7h40.4V373.1c0-40.6-32.5-66.7-82.4-66.7c-46.3,0-80.6,26.5-81.9,62.9H726
	c3.2-17.3,19.3-28.7,41.3-28.7c26.7,0,41.7,12.4,41.7,35.3v15.5l-54.5,3.2c-50.7,3.1-78.1,23.8-78.1,59.9
	C676.4,491.1,704.7,515.2,745.3,515.2z M757,481.9c-23.3,0-38-11.2-38-28.3c0-17.7,14.2-27.9,41.5-29.6l48.5-3.1v15.9
	C808.9,463.1,786.6,481.9,757,481.9z M904.8,589.5c42.6,0,62.6-16.2,80.1-65.5l76.6-214.9h-44.4l-51.4,166.1h-0.9l-51.4-166.1h-45.6
	l73.9,204.7l-4,12.4c-6.7,21.1-17.5,29.2-36.8,29.2c-3.4,0-10.1-0.4-12.8-0.7v33.7C890.8,589.1,901.6,589.5,904.8,589.5L904.8,589.5
	z"/>
</svg>
