<?xml version="1.0" encoding="utf-8"?>
<!-- Generator: Adobe Illustrator 25.4.1, SVG Export Plug-In . SVG Version: 6.00 Build 0)  -->
<svg version="1.0" id="Layer_1" xmlns="http://www.w3.org/2000/svg" xmlns:xlink="http://www.w3.org/1999/xlink" x="0px" y="0px"
	 viewBox="0 0 1200 800" style="enable-background:new 0 0 1200 800;" xml:space="preserve">
<style type="text/css">
	.st0{fill:url(#SVGID_1_);}
	.st1{fill:#FFFFFF;}
</style>
<g>
	
		<radialGradient id="SVGID_1_" cx="619.7841" cy="191.967" r="77.4794" gradientTransform="matrix(1 0 0 1 6.416 208.083)" gradientUnits="userSpaceOnUse">
		<stop  offset="5.618000e-03" style="stop-color:#FFEEE0"/>
		<stop  offset="0.1096" style="stop-color:#FEE9D7"/>
		<stop  offset="0.2793" style="stop-color:#FDDBBF"/>
		<stop  offset="0.4935" style="stop-color:#FBC597"/>
		<stop  offset="0.744" style="stop-color:#F8A560"/>
		<stop  offset="1" style="stop-color:#F48120"/>
	</radialGradient>
	<path class="st0" d="M626.2,323.4c-43.3,0-78.3,33.7-78.3,75.8c0,44.6,33.7,77.5,78.3,77.5c43.7,0,78.3-33.7,78.3-76.6
		C704.6,357.1,670.4,323.4,626.2,323.4z"/>
	<path class="st1" d="M180.5,326.3h-42.1v147h42.1c22.1,0,38.3-5.4,52.5-17.1c16.7-13.7,26.7-35,26.7-56.7
		C259.7,356.7,227.2,326.3,180.5,326.3z M214.3,436.7c-9.2,8.3-20.8,11.7-39.2,11.7h-7.9v-97.1h7.9c18.7,0,30,3.3,39.2,12.1
		c10,8.7,15.8,22.5,15.8,36.7C230.1,413.7,224.3,427.9,214.3,436.7z"/>
	<rect x="273" y="326.3" class="st1" width="28.7" height="147"/>
	<path class="st1" d="M371.7,382.9c-17.1-6.2-22.5-10.4-22.5-18.3c0-9.2,9.2-16.2,21.2-16.2c8.7,0,15.8,3.3,23.3,12.1l15.4-20.4
		c-12.5-10.8-27.1-16.2-43.3-16.2c-25.8,0-45.8,17.9-45.8,42.1c0,20.4,9.2,30.8,36.2,40.4c11.2,3.7,17.1,6.7,20,8.3
		c5.8,3.7,8.7,9.2,8.7,15.4c0,12.1-9.6,20.8-22.5,20.8c-13.7,0-24.6-6.7-31.2-19.6L313,449.2c13.3,19.6,29.2,27.9,50.8,27.9
		c30,0,50.8-20,50.8-48.3C414.2,405.4,404.6,394.6,371.7,382.9z"/>
	<path class="st1" d="M423.4,400c0,43.3,34.2,77.1,77.9,77.1c12.5,0,22.9-2.5,35.8-8.7v-33.7c-11.7,11.7-21.7,16.2-34.6,16.2
		c-28.7,0-49.6-20.8-49.6-50.8c0-28.3,21.2-50.4,48.3-50.4c13.7,0,24.2,5,35.8,16.7v-34.2c-12.5-6.2-22.9-9.2-35.4-9.2
		C458,322.9,423.4,357.1,423.4,400z"/>
	<polygon class="st1" points="769.5,425 730.4,326.3 699.1,326.3 761.6,477.1 777,477.1 840.4,326.3 809.5,326.3 	"/>
	<polygon class="st1" points="853.7,473.3 934.9,473.3 934.9,448.7 882.4,448.7 882.4,408.7 932.8,408.7 932.8,383.8 882.4,383.8 
		882.4,351.3 934.9,351.3 934.9,326.3 853.7,326.3 	"/>
	<path class="st1" d="M1048.6,369.6c0-27.5-19.2-43.3-52.1-43.3H954v147h28.7v-59.2h3.7l39.6,59.2h35.4l-46.2-62.1
		C1037,407.1,1048.6,392.1,1048.6,369.6z M991.1,394.2h-8.3v-44.6h8.7c17.9,0,27.5,7.5,27.5,21.7
		C1019.1,386.3,1009.5,394.2,991.1,394.2z"/>
</g>
</svg>
