<?xml version="1.0" encoding="utf-8"?>
<!-- Generator: Adobe Illustrator 25.4.1, SVG Export Plug-In . SVG Version: 6.00 Build 0)  -->
<svg version="1.0" id="Layer_1" xmlns="http://www.w3.org/2000/svg" xmlns:xlink="http://www.w3.org/1999/xlink" x="0px" y="0px"
	 viewBox="0 0 1200 800" style="enable-background:new 0 0 1200 800;" xml:space="preserve">
<style type="text/css">
	.st0{fill:#FFFFFF;}
	.st1{fill:#557EBF;}
	.st2{fill:#36A852;}
	.st3{fill:#F9BC15;}
	.st4{fill:#EA4535;}
</style>
<g>
	<path class="st0" d="M576.4,396v101.6h-32.2v-251h85.5c20.6-0.4,40.6,7.4,55.4,21.7c15,13.5,23.4,32.8,23.1,53
		c0.4,20.3-8,39.7-23.1,53.3c-15,14.3-33.4,21.4-55.4,21.4L576.4,396L576.4,396z M576.4,277.6v87.6h54.1c12,0.4,23.6-4.4,31.9-13
		c16.9-16.5,17.3-43.5,0.9-60.5c-0.3-0.3-0.6-0.6-0.9-0.9c-8.2-8.8-19.9-13.7-31.9-13.3L576.4,277.6L576.4,277.6z"/>
	<path class="st0" d="M782.4,320.3c23.8,0,42.6,6.4,56.4,19.1c13.8,12.7,20.7,30.2,20.7,52.4v105.8h-30.8v-23.8h-1.4
		c-13.4,19.6-31.1,29.4-53.3,29.4c-18.9,0-34.7-5.6-47.5-16.8c-12.4-10.4-19.4-25.9-19.1-42.1c0-17.8,6.7-31.9,20.1-42.4
		c13.4-10.5,31.4-15.8,53.8-15.8c19.1,0,34.9,3.5,47.3,10.5v-7.4c0.1-11-4.8-21.5-13.3-28.5c-8.5-7.7-19.6-11.9-31.1-11.8
		c-18,0-32.3,7.6-42.8,22.8L713.1,354C728.7,331.5,751.8,320.3,782.4,320.3z M740.7,445.1c0,8.3,3.9,16.2,10.7,21
		c7.1,5.6,16,8.6,25.1,8.4c13.6,0,26.6-5.4,36.3-15.1c10.7-10.1,16-21.8,16-35.4c-10.1-8-24.1-12-42.1-12c-13.1,0-24,3.2-32.8,9.5
		C745.1,428,740.7,435.7,740.7,445.1L740.7,445.1z"/>
	<path class="st0" d="M1036.6,325.9L928.9,573.4h-33.3l40-86.6l-70.8-160.8h35L951,449.3h0.7l49.8-123.4H1036.6z"/>
	<path class="st1" d="M446.1,374.1c0-9.8-0.8-19.6-2.5-29.3h-136v55.5h77.9c-3.2,17.9-13.6,33.8-28.8,43.8v36h46.5
		C430.4,455.1,446.1,418,446.1,374.1z"/>
	<path class="st2" d="M307.6,515c38.9,0,71.7-12.8,95.6-34.8l-46.5-36c-12.9,8.8-29.6,13.8-49.1,13.8c-37.6,0-69.5-25.4-80.9-59.5
		h-47.9v37.1C203.3,484.3,253.1,515,307.6,515z"/>
	<path class="st3" d="M226.7,398.4c-6-17.9-6-37.3,0-55.2v-37.1h-47.9c-20.5,40.7-20.5,88.8,0,129.5L226.7,398.4z"/>
	<path class="st4" d="M307.6,283.7c20.6-0.3,40.4,7.4,55.3,21.6l0,0l41.2-41.2c-26.1-24.5-60.7-38-96.5-37.5
		c-54.5,0-104.4,30.7-128.8,79.4l47.9,37.1C238.1,309.1,270,283.7,307.6,283.7z"/>
</g>
</svg>
