<?xml version="1.0" encoding="utf-8"?>
<!-- Generator: Adobe Illustrator 25.4.1, SVG Export Plug-In . SVG Version: 6.00 Build 0)  -->
<svg version="1.0" id="Layer_1" xmlns="http://www.w3.org/2000/svg" xmlns:xlink="http://www.w3.org/1999/xlink" x="0px" y="0px"
	 viewBox="0 0 1200 800" style="enable-background:new 0 0 1200 800;" xml:space="preserve">
<style type="text/css">
	.st0{clip-path:url(#SVGID_00000132782648400799998040000008891370314429633458_);}
	.st1{fill:#254AA5;}
</style>
<g>
	<defs>
		<path id="SVGID_1_" d="M615.9,346.3c-0.5,41.5,37,64.7,65.3,78.5c29,14.1,38.8,23.2,38.7,35.8c-0.2,19.3-23.2,27.9-44.7,28.2
			c-37.5,0.6-59.3-10.1-76.6-18.2l-13.5,63.2c17.4,8,49.6,15,82.9,15.3c78.3,0,129.6-38.7,129.9-98.6
			c0.3-76.1-105.2-80.3-104.5-114.3c0.2-10.3,10.1-21.3,31.7-24.1c10.7-1.4,40.1-2.5,73.5,12.9l13.1-61.1
			c-18-6.5-41.1-12.8-69.8-12.8C668.1,251,616.3,290.2,615.9,346.3 M937.6,256.2c-14.3,0-26.4,8.3-31.7,21.1L794,544.6h78.3l15.6-43
			h95.7l9,43h69l-60.2-288.3H937.6 M948.6,334.1l22.6,108.3h-61.9L948.6,334.1 M521,256.2l-61.7,288.3h74.6l61.7-288.3H521
			 M410.6,256.2L333,452.5l-31.4-166.9c-3.7-18.6-18.2-29.4-34.4-29.4H140.2l-1.8,8.4c26.1,5.7,55.7,14.8,73.6,24.5
			c11,6,14.1,11.2,17.7,25.3l59.5,230.1h78.8l120.9-288.3L410.6,256.2"/>
	</defs>
	<use xlink:href="#SVGID_1_"  style="overflow:visible;fill:#254AA5;"/>
	<clipPath id="SVGID_00000061450888543939769680000000893668563956839833_">
		<use xlink:href="#SVGID_1_"  style="overflow:visible;"/>
	</clipPath>
	
		<g transform="matrix(4.98469 0 0 -4.98469 -1804.82 502.202)" style="clip-path:url(#SVGID_00000061450888543939769680000000893668563956839833_);">
		<path class="st1" d="M370.5,43.3l182.5,67.2L594.4-2.3L412-69.5"/>
	</g>
</g>
</svg>
