<?xml version="1.0" encoding="utf-8"?>
<!-- Generator: Adobe Illustrator 22.0.1, SVG Export Plug-In . SVG Version: 6.00 Build 0)  -->
<svg version="1.1" id="Capa_1" xmlns="http://www.w3.org/2000/svg" xmlns:xlink="http://www.w3.org/1999/xlink" x="0px" y="0px"
	 viewBox="0 0 55.7 55.7" style="enable-background:new 0 0 55.7 55.7;" xml:space="preserve">
<style type="text/css">
	.st0{fill:#BC3100;}
</style>
<path class="st0" d="M27.8,55.7C12.5,55.7,0,43.2,0,27.8S12.5,0,27.8,0s27.8,12.5,27.8,27.8S43.2,55.7,27.8,55.7z M27.8,5
	C15.2,5,5,15.2,5,27.8c0,12.6,10.2,22.8,22.8,22.8c12.6,0,22.8-10.2,22.8-22.8C50.7,15.2,40.4,5,27.8,5z"/>
<rect x="24.1" y="1.2" class="st0" width="7.5" height="14"/>
<rect x="24.1" y="37.8" class="st0" width="7.5" height="17.4"/>
<rect x="15.9" y="9" transform="matrix(-1.836970e-16 1 -1 -1.836970e-16 47.4583 8.2083)" class="st0" width="7.5" height="37.6"/>
<rect x="45.8" y="22.6" transform="matrix(-1.836970e-16 1 -1 -1.836970e-16 77.4167 -21.75)" class="st0" width="7.5" height="10.5"/>
</svg>
