<?xml version="1.0" encoding="utf-8"?>
<!-- Generator: Adobe Illustrator 25.4.1, SVG Export Plug-In . SVG Version: 6.00 Build 0)  -->
<svg version="1.1" id="Layer_1" xmlns="http://www.w3.org/2000/svg" xmlns:xlink="http://www.w3.org/1999/xlink" x="0px" y="0px"
	 viewBox="0 0 424.2 358.7" style="enable-background:new 0 0 424.2 358.7;" xml:space="preserve">
<style type="text/css">
	.st0{fill:#FFFFFF;}
</style>
<path class="st0" d="M378.1,0H271.7c-18.8,0-34.1,15.3-34.1,34.1v29.8c0,18.8,15.3,34.1,34.1,34.1h106.4c18.8,0,34.1-15.3,34.1-34.1
	V34.1C412.2,15.3,396.9,0,378.1,0z M415.6,358.7H8.5c-5,0-8.9-4.3-8.5-9.3l16.3-189.5c1.1-12.2,8.2-22.3,18.4-27.4
	c5.6-2.9,12.3,1.3,12.3,7.6v15.3c0,4.7-3.8,8.5-8.5,8.5c-2.3,0-5.3-0.3-8.2,2.5C25,171.9,29,181,36.8,181H228c4.9,0,8.8-4.2,8.5-9.1
	c-0.3-4.5-4.3-7.9-8.8-7.9h-1.8c-4.7,0-8.5-3.8-8.5-8.5v-18.1c0-4.7,3.8-8.5,8.5-8.5h147.9c17.8,0,32.4,13.4,33.9,31.1l16.3,189.5
	C424.6,354.4,420.6,358.7,415.6,358.7z M200.4,265c0-14.1-11.5-25.5-25.5-25.5H89.7c-14.1,0-25.5,11.5-25.5,25.5v38.3
	c0,14.1,11.5,25.5,25.5,25.5h85.2c14.1,0,25.5-11.5,25.5-25.5V265z M263.2,306.6c0-4.7-3.8-8.5-8.5-8.5h-9.6c-4.7,0-8.5,3.8-8.5,8.5
	c0,4.7,3.8,8.5,8.5,8.5h9.6C259.4,315.1,263.2,311.3,263.2,306.6z M263.2,242.7c0-4.7-3.8-8.5-8.5-8.5h-9.6c-4.7,0-8.5,3.8-8.5,8.5
	c0,4.7,3.8,8.5,8.5,8.5h9.6C259.4,251.2,263.2,247.4,263.2,242.7z M316.4,306.6c0-4.7-3.8-8.5-8.5-8.5h-9.6c-4.7,0-8.5,3.8-8.5,8.5
	c0,4.7,3.8,8.5,8.5,8.5h9.6C312.6,315.1,316.4,311.3,316.4,306.6z M316.4,242.7c0-4.7-3.8-8.5-8.5-8.5h-9.6c-4.7,0-8.5,3.8-8.5,8.5
	c0,4.7,3.8,8.5,8.5,8.5h9.6C312.6,251.2,316.4,247.4,316.4,242.7z M369.6,306.6c0-4.7-3.8-8.5-8.5-8.5h-9.6c-4.7,0-8.5,3.8-8.5,8.5
	c0,4.7,3.8,8.5,8.5,8.5h9.6C365.8,315.1,369.6,311.3,369.6,306.6z M369.6,242.7c0-4.7-3.8-8.5-8.5-8.5h-9.6c-4.7,0-8.5,3.8-8.5,8.5
	c0,4.7,3.8,8.5,8.5,8.5h9.6C365.8,251.2,369.6,247.4,369.6,242.7z M187.6,35.2l-25.6,14.6l-25.6-14.6c-2.6-1.5-5.8-1.5-8.5,0
	l-25.6,14.6L76.9,35.2c-5.7-3.2-12.7,0.9-12.7,7.4v112.8c0,4.7,3.8,8.5,8.5,8.5h119.2c4.7,0,8.5-3.8,8.5-8.5V42.6
	C200.4,36.1,193.3,31.9,187.6,35.2z"/>
</svg>
