<svg height="512pt" viewBox="0 -95 512.001 512" width="512pt" xmlns="http://www.w3.org/2000/svg"><path d="m154.761719 238.011719c0 11.773437 9.582031 21.355469 21.355469 21.355469 11.777343 0 21.355468-9.582032 21.355468-21.355469 0-11.777344-9.578125-21.355469-21.355468-21.355469-11.773438 0-21.355469 9.578125-21.355469 21.355469zm27.695312 0c0 3.496093-2.84375 6.335937-6.339843 6.335937-3.496094 0-6.339844-2.839844-6.339844-6.335937 0-3.496094 2.84375-6.339844 6.339844-6.339844 3.496093 0 6.339843 2.84375 6.339843 6.339844zm0 0"/><path d="m238.929688 212.367188c-2.464844 0-4.871094-.6875-6.949219-1.980469-3.519531-2.195313-8.152344-1.117188-10.34375 2.398437-2.195313 3.519532-1.117188 8.152344 2.398437 10.34375 4.46875 2.785156 9.617188 4.253906 14.894532 4.253906 15.539062 0 28.179687-12.640624 28.179687-28.179687s-12.640625-28.183594-28.179687-28.183594c-7.527344 0-14.605469 2.933594-19.925782 8.253907-2.933594 2.933593-2.933594 7.6875-.003906 10.617187 2.933594 2.933594 7.6875 2.933594 10.617188 0 2.488281-2.484375 5.792968-3.855469 9.3125-3.855469 7.257812 0 13.164062 5.90625 13.164062 13.164063 0 7.261719-5.90625 13.167969-13.164062 13.167969zm0 0"/><path d="m395.339844 216.65625c-11.777344 0-21.355469 9.578125-21.355469 21.355469 0 11.773437 9.578125 21.355469 21.355469 21.355469 11.773437 0 21.355468-9.582032 21.355468-21.355469 0-11.777344-9.582031-21.355469-21.355468-21.355469zm0 27.691406c-3.496094 0-6.339844-2.839844-6.339844-6.335937 0-3.496094 2.84375-6.339844 6.339844-6.339844s6.339844 2.84375 6.339844 6.339844c0 3.496093-2.84375 6.335937-6.339844 6.335937zm0 0"/><path d="m497.984375 267.628906h-8.925781v-59.65625c0-8.15625-5.5-15.335937-13.378906-17.453125l-55.089844-14.824219v-77.953124c0-4.148438-3.359375-7.507813-7.507813-7.507813-4.144531 0-7.507812 3.359375-7.507812 7.507813v73.910156l-45.695313-12.292969c-5.472656-1.476563-11.191406-.34375-15.691406 3.105469-4.5 3.449218-7.082031 8.679687-7.082031 14.347656v90.8125h-9.265625l-10.300782-30.203125c-1.742187-5.101563-6.757812-8.242187-12.175781-7.636719-.839843.09375-1.703125.078125-2.558593-.046875-4.382813-.632812-7.929688-4.265625-8.4375-8.636719-.460938-3.960937 1.355468-7.695312 4.742187-9.746093 4.65625-2.820313 6.6875-8.355469 4.945313-13.464844l-28.09375-82.363281c-1.992188-5.847656-6.761719-10.222656-12.757813-11.710938-5.996094-1.484375-12.253906.15625-16.75 4.394532l-32.449219 30.597656v-131.300782c0-4.144531-3.363281-7.507812-7.507812-7.507812-4.148438 0-7.507813 3.363281-7.507813 7.507812v145.460938l-75.308593 71.007812v-17.246093c0-9.964844-8.109376-18.074219-18.078126-18.074219h-26.503906v-83.789062c0-4.148438-3.359375-7.507813-7.507812-7.507813-4.144532 0-7.507813 3.359375-7.507813 7.507813v83.789062h-26.503906c-9.964844 0-18.074219 8.109375-18.074219 18.074219v9.6875c0 5.339843 3.679688 9.917969 8.941406 11.125 2.84375.65625 4.90625 3.253906 4.90625 6.179687 0 2.925782-2.0625 5.523438-4.90625 6.179688-5.265624 1.210937-8.941406 5.789062-8.941406 11.125v16.601562h-5.488281c-7.730469 0-14.015625 6.285156-14.015625 14.015625v27c0 7.726563 6.285156 14.015625 14.015625 14.015625h434.5c4.144531 0 7.507813-3.363281 7.507813-7.507812 0-4.148438-3.363282-7.507813-7.507813-7.507813h-433.5v-25h259.546875c4.148438 0 7.507812-3.359375 7.507812-7.507812 0-4.144531-3.359374-7.507813-7.507812-7.507813h-175.285156l157.480468-148.492187c1.054688-.996094 2.226563-.894531 2.832032-.742188.605468.152344 1.691406.605469 2.160156 1.980469l27.207031 79.773438c-6.84375 5.316406-10.527343 13.933593-9.507812 22.691406 1.304687 11.195312 10.019531 20.144531 21.195312 21.765625 1.183594.171875 2.375.257812 3.566407.261719l7.765624 22.761718h-4.175781c-4.148437 0-7.507812 3.363282-7.507812 7.507813 0 4.148437 3.359375 7.511719 7.507812 7.511719h189.183594v24.996093h-15.429687c-4.148438 0-7.507813 3.359375-7.507813 7.507813 0 4.148437 3.359375 7.507812 7.507813 7.507812h16.429687c7.730469 0 14.015625-6.285156 14.015625-14.015625v-27c0-7.730469-6.285156-14.015625-14.015625-14.015625zm-463.464844 0v-13.90625c8.277344-3.078125 13.847657-10.945312 13.847657-20 0-9.054687-5.566407-16.921875-13.847657-20.003906v-6.988281c0-1.683594 1.371094-3.058594 3.058594-3.058594h68.023437c1.6875 0 3.058594 1.375 3.058594 3.058594v31.40625l-24.882812 23.464843c-1.863282 1.753907-3.28125 3.800782-4.242188 6.027344zm317.601563-59.199218c1.234375 1.15625 2.003906 2.800781 2.003906 4.617187 0 1.820313-.769531 3.464844-2.003906 4.621094zm0 25.53125c9.703125-2.011719 17.019531-10.621094 17.019531-20.910157 0-10.292969-7.316406-18.902343-17.019531-20.914062v-15.320313c0-1.316406.753906-2.085937 1.199218-2.429687.449219-.34375 1.386719-.867188 2.65625-.527344l115.804688 31.164063c1.332031.355468 2.261719 1.570312 2.261719 2.949218v59.65625h-121.921875zm0 0"/></svg>