<svg enable-background="new 0 0 64 64" height="512" viewBox="0 0 64 64" width="512" xmlns="http://www.w3.org/2000/svg"><g id="cup"><g><path d="m47.8 61.64h-18.1c-.3 0-.58-.13-.77-.37-1.23-1.51-2.41-3.08-3.5-4.69-9.83-1.21-18.34-5.83-21.78-11.84-1.93-3.38-2.18-6.92-.74-10.23 1.44-3.32 3.72-5.43 6.77-6.29 1.74-.49 3.71-.52 5.86-.08-.09-2.12.02-3.35.02-3.42.05-.51.48-.91 1-.91h44.38c.52 0 .95.39 1 .91.07.74 1.54 18.34-13.36 36.55-.2.24-.48.37-.78.37zm-17.62-2h17.14c12.19-15.13 12.74-30.05 12.66-33.82h-42.47c-.02.76-.01 1.97.11 3.54.02.33-.11.64-.36.85s-.59.28-.9.19c-2.32-.65-4.38-.73-6.13-.24-2.44.68-4.28 2.42-5.48 5.16-1.18 2.72-.96 5.64.64 8.44 3.18 5.57 11.32 9.85 20.73 10.9.29.03.56.19.72.44 1.03 1.55 2.16 3.08 3.34 4.54zm-7-7.68c-.07 0-.13-.01-.2-.02-7.32-1.5-13.37-5.06-15.79-9.31-1.25-2.18-1.43-4.33-.53-6.39.92-2.12 2.3-3.45 4.12-3.96 1.83-.52 4.12-.24 6.8.82.32.13.56.42.62.76 1 5.7 2.97 11.29 5.87 16.62.19.34.16.76-.08 1.07-.2.26-.5.41-.81.41zm-10.48-17.93c-.51 0-.97.06-1.39.18-1.24.35-2.14 1.25-2.83 2.83-.64 1.47-.5 2.98.43 4.6 1.92 3.36 6.56 6.28 12.36 7.84-2.36-4.75-4.03-9.69-4.96-14.72-1.34-.48-2.56-.73-3.61-.73z"/></g><g><path d="m52.4 46.83c-.14 0-.28-.03-.42-.09-.5-.23-.72-.82-.49-1.33 3.15-6.87 4.14-12.86 4.41-16.67.04-.55.52-.95 1.07-.93.55.04.97.52.93 1.07-.29 3.98-1.31 10.22-4.58 17.36-.18.38-.54.59-.92.59z"/></g><g><path d="m45.87 57.64c-.21 0-.43-.07-.61-.21-.44-.34-.52-.96-.18-1.4 1.29-1.68 2.49-3.43 3.56-5.22.28-.47.9-.63 1.37-.34s.62.9.34 1.37c-1.11 1.85-2.36 3.66-3.69 5.4-.2.27-.49.4-.79.4z"/></g><g><path d="m31.27 18.82c-.31 0-.62-.14-.81-.42-.32-.45-.22-1.07.22-1.39.03-.03 1.18-.9 1.32-2.29.11-1.08-.39-2.24-1.48-3.47-1.49-1.67-2.16-3.37-1.97-5.04.25-2.3 2.06-3.62 2.13-3.67.45-.32 1.07-.22 1.4.23.32.45.22 1.07-.23 1.4-.01 0-1.17.88-1.32 2.29-.11 1.08.39 2.24 1.48 3.47 1.49 1.67 2.16 3.37 1.97 5.04-.25 2.3-2.06 3.62-2.13 3.67-.17.12-.38.18-.58.18z"/></g><g><path d="m39.71 18.82c-.31 0-.62-.14-.81-.42-.32-.45-.22-1.07.22-1.39.03-.03 1.18-.9 1.32-2.29.11-1.08-.39-2.24-1.48-3.47-1.49-1.67-2.16-3.37-1.97-5.04.25-2.3 2.06-3.62 2.13-3.67.45-.32 1.07-.22 1.4.23.32.45.22 1.07-.23 1.4-.01 0-1.17.88-1.32 2.29-.11 1.08.39 2.24 1.48 3.47 1.49 1.67 2.16 3.37 1.97 5.04-.25 2.3-2.06 3.62-2.13 3.67-.18.12-.38.18-.58.18z"/></g><g><path d="m48.14 18.82c-.31 0-.62-.14-.81-.42-.32-.45-.22-1.07.22-1.39.03-.03 1.18-.9 1.32-2.29.11-1.08-.39-2.24-1.48-3.47-1.49-1.67-2.16-3.37-1.97-5.04.25-2.3 2.06-3.62 2.13-3.67.45-.32 1.07-.22 1.4.23.32.45.22 1.07-.23 1.4-.01 0-1.17.88-1.32 2.29-.11 1.08.39 2.24 1.48 3.47 1.49 1.67 2.16 3.37 1.97 5.04-.25 2.3-2.06 3.62-2.13 3.67-.17.12-.38.18-.58.18z"/></g></g></svg>