<svg fill="none" height="512" viewBox="0 0 24 24" width="512" xmlns="http://www.w3.org/2000/svg"><path d="m13.5 11.7929 2.6464-2.64645c.1953-.19527.5119-.19527.7072 0 .1952.19526.1952.51184 0 .7071l-2.6465 2.64645 2.6465 2.6464c.1952.1953.1952.5119 0 .7072-.1953.1952-.5119.1952-.7072 0l-2.6464-2.6465-2.6464 2.6465c-.1953.1952-.5119.1952-.7072 0-.19522-.1953-.19522-.5119 0-.7072l2.6465-2.6464-2.6465-2.64645c-.19522-.19526-.19522-.51184 0-.7071.1953-.19527.5119-.19527.7072 0zm-6.21558 5.6674c.28499.342.70716.5397 1.15233.5397h11.06325c.8284 0 1.5-.6716 1.5-1.5v-8c0-.82843-.6716-1.5-1.5-1.5h-11.06325c-.44517 0-.86734.19773-1.15233.53972l-4.13357 4.96028zm-5.16853-5.2804 4.40031-5.28036c.47498-.56998 1.1786-.89954 1.92055-.89954h11.06325c1.3807 0 2.5 1.11929 2.5 2.5v8c0 1.3807-1.1193 2.5-2.5 2.5h-11.06325c-.74195 0-1.44557-.3296-1.92055-.8995l-4.40031-5.2804c-.15452-.1854-.15452-.4548 0-.6402z" fill="rgb(0,0,0)"/></svg>