<?xml version="1.0" encoding="utf-8"?>
<!-- Generator: Adobe Illustrator 25.4.1, SVG Export Plug-In . SVG Version: 6.00 Build 0)  -->
<svg version="1.1" id="Layer_1" xmlns="http://www.w3.org/2000/svg" xmlns:xlink="http://www.w3.org/1999/xlink" x="0px" y="0px"
	 viewBox="0 0 325.7 306.2" style="enable-background:new 0 0 325.7 306.2;" xml:space="preserve">
<g id="Erase">
	<path d="M145.5,306.2c-5.7,0-10.2-4.6-10.3-10.2c0-2.7,1.1-5.3,3-7.3l157.9-157.9c5.8-5.7,9.1-13.5,9.1-21.6
		c0-8.2-3.3-16.1-9.1-21.9l-57.7-57.7c-5.8-5.8-13.6-9.1-21.8-9.2c-8.1,0-15.9,3.3-21.5,9.1L29.6,194.9c-5.8,5.7-9.1,13.5-9.1,21.6
		c0,8.2,3.3,16.1,9.1,21.9L80,288.7c4,4,4,10.5,0,14.5c-4,4-10.5,4-14.5,0l-50.4-50.4c-20-19.8-20.2-52-0.5-72
		c0.2-0.2,0.3-0.3,0.5-0.5L180.4,15.1c9.5-9.7,22.5-15.1,36-15.1h0.2c13.6,0,26.7,5.5,36.3,15.2l57.7,57.7c20,19.8,20.2,52,0.5,72
		c-0.2,0.2-0.3,0.3-0.5,0.5L152.6,303.2C150.7,305.1,148.2,306.2,145.5,306.2L145.5,306.2z"/>
	<path d="M285.8,306.2h-213c-5.7,0-10.2-4.6-10.2-10.2s4.6-10.2,10.2-10.2h213c5.7,0,10.2,4.6,10.2,10.2S291.4,306.2,285.8,306.2z"
		/>
	<path d="M190.1,261.8c-2.7,0-5.3-1.1-7.2-3L67.2,143.1c-3.9-4.1-3.8-10.6,0.3-14.5c4-3.8,10.3-3.8,14.2,0l115.7,115.7
		c4,4,4,10.5,0,14.5C195.4,260.7,192.8,261.8,190.1,261.8L190.1,261.8z"/>
</g>
</svg>
