<svg id="Layer_1" enable-background="new 0 0 512 512" height="512" viewBox="0 0 512 512" width="512" xmlns="http://www.w3.org/2000/svg"><path d="m268.158 84.887c-94.351 0-171.113 76.761-171.113 171.113s76.761 171.113 171.113 171.113 171.112-76.762 171.112-171.113-76.761-171.113-171.112-171.113zm0 328.388c-86.721 0-157.275-70.554-157.275-157.275s70.554-157.275 157.275-157.275 157.274 70.554 157.274 157.275-70.554 157.275-157.274 157.275zm0-270.194c-62.264 0-112.919 50.653-112.919 112.919s50.655 112.919 112.919 112.919c62.261 0 112.917-50.653 112.917-112.919s-50.656-112.919-112.917-112.919zm0 212c-54.633 0-99.081-44.446-99.081-99.081s44.448-99.081 99.081-99.081 99.079 44.446 99.079 99.081-44.446 99.081-99.079 99.081zm6.919-163.387c0 3.82-3.097 6.919-6.919 6.919-31.644 0-57.39 25.743-57.39 57.387 0 3.82-3.097 6.919-6.919 6.919s-6.919-3.099-6.919-6.919c0-39.275 31.953-71.225 71.227-71.225 3.823 0 6.92 3.099 6.92 6.919zm233.495-105.861c-2.124-1.243-4.743-1.261-6.887-.054-32.185 18.126-53.809 69.405-53.809 127.595 0 16.185 1.646 31.995 4.896 46.991.689 3.185 3.505 5.455 6.761 5.455h1.68v135.901c0 14 11.392 25.392 25.394 25.392 14 0 25.392-11.392 25.392-25.392v-142.82-167.095c.001-2.459-1.303-4.734-3.427-5.973zm-10.41 19.631v146.518h-32.966c-2.311-12.401-3.482-25.36-3.482-38.608 0-45.676 14.547-87.563 36.448-107.91zm-11.556 307.811c-6.372 0-11.554-5.185-11.554-11.554v-135.901h23.11v135.901c0 6.369-5.185 11.554-11.556 11.554zm-387.192-255.698v-46.405c0-3.82-3.097-6.919-6.919-6.919s-6.919 3.099-6.919 6.919v46.405c0 19.779-16.09 35.869-35.869 35.869s-35.869-16.09-35.869-35.869v-46.405c0-3.82-3.097-6.919-6.919-6.919s-6.919 3.098-6.919 6.918v46.405c0 18.125 9.783 33.968 24.313 42.653v201.491c0 14 11.392 25.392 25.394 25.392 14 0 25.392-11.392 25.392-25.392v-201.49c14.532-8.684 24.315-24.527 24.315-42.653zm-38.153 244.144c0 6.369-5.185 11.554-11.556 11.554s-11.554-5.185-11.554-11.554v-195.849c3.716.89 7.572 1.412 11.556 1.412 3.983 0 7.839-.521 11.554-1.411zm-18.473-244.541v-65.374c0-3.82 3.097-6.919 6.919-6.919s6.919 3.099 6.919 6.919v65.374c0 3.82-3.097 6.919-6.919 6.919s-6.919-3.099-6.919-6.919zm21.394 0v-60.207c0-3.82 3.097-6.919 6.919-6.919s6.919 3.099 6.919 6.919v60.207c0 3.82-3.097 6.919-6.919 6.919s-6.919-3.099-6.919-6.919zm-42.788 0v-60.207c0-3.82 3.097-6.919 6.919-6.919s6.919 3.099 6.919 6.919v60.207c0 3.82-3.097 6.919-6.919 6.919s-6.919-3.099-6.919-6.919z"/></svg>