<?xml version="1.0" encoding="utf-8"?>
<!-- Generator: Adobe Illustrator 25.4.1, SVG Export Plug-In . SVG Version: 6.00 Build 0)  -->
<svg version="1.1" id="Layer_1" xmlns="http://www.w3.org/2000/svg" xmlns:xlink="http://www.w3.org/1999/xlink" x="0px" y="0px"
	 viewBox="0 0 512 373.5" style="enable-background:new 0 0 512 373.5;" xml:space="preserve">
<style type="text/css">
	.st0{fill-rule:evenodd;clip-rule:evenodd;}
</style>
<g>
	<path class="st0" d="M0,38.4C0,17.2,17.2,0,38.4,0h435.2C494.8,0,512,17.2,512,38.4v179.2c0,21.2-17.2,38.4-38.4,38.4H38.4
		C17.2,256,0,238.8,0,217.6V38.4z M76.8,51.2H128v51.2H76.8V51.2z M102.4,153.6v51.2h51.2v-51.2H102.4z M307.2,204.8H204.8v-51.2
		h102.4V204.8z M230.4,51.2h-51.2v51.2h51.2V51.2z M332.8,51.2h-51.2v51.2h51.2V51.2z M435.2,51.2H384v51.2h51.2V51.2z M409.6,204.8
		v-51.2h-51.2v51.2H409.6z"/>
	<polygon points="256,373.5 341.3,288.1 170.7,288.1 	"/>
</g>
</svg>
