<?xml version="1.0" encoding="utf-8"?>
<!-- Generator: Adobe Illustrator 25.4.1, SVG Export Plug-In . SVG Version: 6.00 Build 0)  -->
<svg version="1.0" id="Layer_1" xmlns="http://www.w3.org/2000/svg" xmlns:xlink="http://www.w3.org/1999/xlink" x="0px" y="0px"
	 viewBox="0 0 1920 1080" style="enable-background:new 0 0 1920 1080;" xml:space="preserve">
<style type="text/css">
	.st0{fill:#2196F3;}
</style>
<g>
	<path class="st0" d="M202.3,218.1h90.9c24.8,0,46.1,15.3,63.9,45.9c17.8,30.6,26.7,67.1,26.7,109.3v389.2c0,42-8.9,78.4-26.7,109.2
		c-17.8,30.7-39.1,46.1-63.9,46.1h-90.9c-24.8,0-46.1-15.2-63.9-45.7c-17.8-30.5-26.7-67-26.7-109.5V373.4c0-42.5,8.9-79,26.7-109.5
		C156.2,233.4,177.5,218.1,202.3,218.1z M292.4,360.2c-6.2-42.8-21.1-64.1-44.6-64.1c-12.5,0-23.2,7.6-32.1,22.8
		c-8.9,15.2-13.4,33.3-13.4,54.5v264.6L292.4,360.2z M203.4,774.6c2.3,21.6,7.1,37.9,14.6,48.8c7.4,10.9,17.4,16.4,29.9,16.4
		c12.6,0,23.3-7.7,32.2-23c8.9-15.3,13.3-33.4,13.3-54.3V498.4L203.4,774.6z"/>
	<path class="st0" d="M474.3,917.8l181.5-777.7h45l-181,777.7H474.3z"/>
	<path class="st0" d="M791.7,917.8V218.1h181.5c24.8,0,46.1,15.3,63.9,45.9c17.8,30.6,26.7,67.1,26.7,109.3v42.3
		c0,34.7-6.9,68.2-20.8,100.4c-13.9,32.2-37.1,48.3-69.7,48.3h45c12.5,0,23.2,7.7,32.1,23s13.4,33.7,13.4,55v275.5h-90.5V684.6
		c0-21.4-4.5-39.7-13.5-55c-9-15.3-19.7-23-32-23h-45.5v311.2H791.7z M882.3,529.3h45.5c12.3,0,23-7.7,32-23.1
		c9-15.4,13.5-33.7,13.5-54.8v-78c0-21.1-4.5-39.3-13.5-54.5c-9-15.2-19.7-22.8-32-22.8h-45.5V529.3z"/>
	<path class="st0" d="M1244.8,917.8V606.6c-60.3-11.9-90.5-63.7-90.5-155.3V218.1h90.5v233.2c0,21.1,4.5,39.4,13.4,54.8
		c8.9,15.4,19.6,23.1,32.1,23.1c12.3,0,23-7.7,32-23.1c9-15.4,13.5-33.7,13.5-54.8V218.1h90.5v233.2c0,91.6-30.2,143.4-90.5,155.3
		v311.2H1244.8z"/>
	<path class="st0" d="M1516.7,917.8V218.1h90.5v285.7l146.6-285.7h80.3L1652.7,568l181.5,349.9h-90.9l-136-271.9v271.9H1516.7z"/>
</g>
</svg>
