<?xml version="1.0" encoding="utf-8"?>
<!-- Generator: Adobe Illustrator 25.4.1, SVG Export Plug-In . SVG Version: 6.00 Build 0)  -->
<svg version="1.1" id="Layer_1" xmlns="http://www.w3.org/2000/svg" xmlns:xlink="http://www.w3.org/1999/xlink" x="0px" y="0px"
	 viewBox="0 0 256.5 154" style="enable-background:new 0 0 256.5 154;" xml:space="preserve">
<style type="text/css">
	.st0{fill:url(#SVGID_1_);}
</style>
<linearGradient id="SVGID_1_" gradientUnits="userSpaceOnUse" x1="0" y1="76.9992" x2="256.4859" y2="76.9992">
	<stop  offset="0" style="stop-color:#D93F00"/>
	<stop  offset="1" style="stop-color:#FFFF20"/>
</linearGradient>
<path class="st0" d="M21.4,115.9L0,128.2l21.4,12.4c5.1,3,8.8,7.8,10.3,13.4h14.3c-3.7-11.8-4.9-24.4-3.3-37l0,0
	c4.8-38.2,36.1-69.4,74.3-74.3c26.8-3.4,53.1,5.6,72.1,24.6c19,19,27.9,45.2,24.5,72.1c-0.6,5-1.7,9.8-3.2,14.6h14.3
	c1.5-5.6,5.1-10.4,10.2-13.4l21.5-12.4L235,115.9c-10.5-6.1-14.2-19.7-8.2-30.2l12.4-21.5l-24.8,0c-12.2,0-22.2-9.9-22.2-22.1V17.2
	l-21.4,12.4c-5.2,3-11.1,3.8-16.9,2.2c-5.7-1.5-10.5-5.2-13.4-10.3L128.2,0l-12.4,21.5c-3,5.2-7.8,8.7-13.5,10.3
	c-5.7,1.5-11.6,0.7-16.8-2.2L64.2,17.2v24.9c0,12.2-10,22.1-22.2,22.1H17.2l12.4,21.5C35.6,96.2,32,109.8,21.4,115.9z"/>
</svg>
