<?xml version="1.0" encoding="iso-8859-1"?>
<!-- Generator: Adobe Illustrator 19.0.0, SVG Export Plug-In . SVG Version: 6.00 Build 0)  -->
<svg version="1.1" id="Capa_1" xmlns="http://www.w3.org/2000/svg" xmlns:xlink="http://www.w3.org/1999/xlink" x="0px" y="0px"
	 viewBox="0 0 511.999 511.999" style="enable-background:new 0 0 511.999 511.999;" xml:space="preserve">
<g>
	<g>
		<path d="M263.43,84.15c-0.66-0.191-1.273-0.284-1.875-0.284c-0.983,0-1.929,0.257-2.874,0.778l-17.585,9.225
			c-2.265,0.791-4.24,2.9-4.929,5.273c-0.464,1.599-0.376,3.399,0.244,4.939c0.693,1.723,1.956,2.927,3.556,3.392
			c0.372,0.107,0.804,0.164,1.251,0.164c0.961,0,1.961-0.258,2.814-0.728l0.05-0.027l4.051-2.868l-20.627,71.023
			c-1.118,3.85,2.515,6.806,6.364,7.924c1.118,0.325,2.293,0.497,3.399,0.497c3.207,0,5.532-1.413,6.22-3.781l25.509-87.834
			C270.003,88.382,266.89,85.155,263.43,84.15z"/>
	</g>
</g>
<g>
	<g>
		<path d="M166.616,424.96c-0.579-3.579-3.325-6.383-6.252-6.383c-0.229,0-0.458,0.017-0.683,0.054l-39.112,6.327l-0.679-4.196
			c-0.988-6.113,5.821-12.742,13.705-20.418c10.908-10.619,24.483-23.836,21.661-41.286c-2.294-14.178-13.979-23.705-29.077-23.705
			c-1.869,0-3.769,0.155-5.647,0.458c-16.502,2.67-27.199,15.486-24.882,29.81c0.855,5.281,3.317,7.958,7.319,7.958
			c0.527,0,1.091-0.048,1.676-0.142c5.398-0.873,8.095-4.671,7.583-7.837c-0.666-4.117,0.059-7.512,2.157-10.09
			c1.901-2.337,4.877-3.891,8.606-4.494c0.989-0.16,1.96-0.241,2.888-0.241c7.72,0,12.099,5.701,13.013,11.352
			c1.597,9.868-7.6,19.176-17.337,29.031c-10.027,10.147-20.394,20.641-18.504,32.329l2.14,13.23c0.489,3.027,4.014,4.66,7.081,4.66
			c0.432-0.001,0.852-0.033,1.248-0.098l48.554-7.854C165.089,432.937,167.253,428.903,166.616,424.96z"/>
	</g>
</g>
<g>
	<g>
		<path d="M407.566,378.448c6.179-4.028,9.807-12.42,9.807-22.953c0-16.981-9.68-25.592-28.77-25.592
			c-23.692,0-30.013,15.306-30.013,24.349c0,6.099,1.848,7.769,8.598,7.769c5.247,0,7.907-2.335,7.907-6.94
			c0-4.712,2.32-10.33,13.37-10.33c8.864,0,12.817,4.081,12.817,13.231c0,11.784-5.345,14.199-13.37,14.199
			c-3.514,0-5.697,2.659-5.697,6.94c0,4.196,2.183,6.802,5.697,6.802c10.67,0,15.857,4.599,15.857,14.06v2.625
			c0,11.308-4.701,16.133-15.719,16.133c-10.572,0-15.304-5.535-15.304-11.021c0-4.696-2.41-6.526-8.598-6.526
			c-5.663,0-7.769,1.957-7.769,7.217c0,6.241,2.732,12.428,7.494,16.974c5.717,5.457,14.03,8.342,24.04,8.342
			c28.277,0,32.499-19.497,32.499-31.119v-2.625C420.412,389.851,415.981,382.447,407.566,378.448z"/>
	</g>
</g>
<g>
	<g>
		<path d="M366.818,63.061c-7.165-13.031-18.975-22.491-33.256-26.638L215.846,2.236c-14.281-4.149-29.321-2.486-42.352,4.679
			c-13.031,7.165-22.491,18.976-26.638,33.256l-11.098,38.211c-1.155,3.974,1.132,8.133,5.107,9.287
			c3.973,1.157,8.133-1.132,9.287-5.107l11.098-38.211c3.03-10.436,9.943-19.066,19.465-24.302
			c9.522-5.236,20.512-6.451,30.949-3.42L329.38,50.817c10.435,3.03,19.066,9.943,24.302,19.465
			c5.236,9.523,6.45,20.513,3.42,30.949l-34.188,117.716c-6.257,21.543-28.874,33.979-50.415,27.722l-117.715-34.187
			c-10.436-3.031-19.066-9.944-24.302-19.466c-5.236-9.522-6.451-20.513-3.42-30.948l13.213-45.495
			c1.154-3.975-1.132-8.134-5.107-9.288c-3.972-1.152-8.133,1.132-9.287,5.107l-13.213,45.495
			c-4.148,14.28-2.486,29.321,4.679,42.351c7.165,13.03,18.975,22.491,33.256,26.638l117.716,34.187
			c5.166,1.5,10.376,2.215,15.504,2.215c24.134,0,46.424-15.837,53.486-40.15l34.189-117.715
			C375.645,91.132,373.983,76.091,366.818,63.061z"/>
	</g>
</g>
<g>
	<g>
		<path d="M257.863,427.853l-19.574-121.008c-4.901-30.304-33.544-50.967-63.847-46.068L53.435,280.351
			c-14.68,2.374-27.556,10.323-36.257,22.382c-8.701,12.059-12.185,26.785-9.811,41.465l6.524,40.335
			c0.661,4.086,4.513,6.859,8.596,6.202c4.086-0.662,6.863-4.51,6.202-8.596l-6.524-40.335c-1.735-10.728,0.811-21.488,7.169-30.301
			c6.358-8.812,15.768-14.621,26.495-16.356l121.008-19.575c22.145-3.58,43.075,11.519,46.656,33.664l19.574,121.008
			c1.735,10.727-0.811,21.488-7.169,30.3c-6.358,8.812-15.768,14.621-26.495,16.356L88.396,496.474
			c-10.728,1.736-21.488-0.811-30.301-7.169c-8.812-6.358-14.621-15.768-16.356-26.495l-7.461-46.125
			c-0.661-4.087-4.512-6.865-8.596-6.202c-4.086,0.662-6.863,4.51-6.202,8.596l7.461,46.125
			c2.374,14.68,10.323,27.556,22.382,36.257c9.589,6.918,20.861,10.538,32.457,10.538c2.989,0,6-0.241,9.008-0.727L211.795,491.7
			c14.68-2.374,27.556-10.323,36.257-22.382C256.753,457.258,260.237,442.533,257.863,427.853z"/>
	</g>
</g>
<g>
	<g>
		<path d="M449.686,264.853h-122.58c-30.698,0-55.672,24.974-55.672,55.672v40.904c0,4.139,3.356,7.495,7.495,7.495
			c4.139,0,7.495-3.356,7.495-7.495v-40.904c0-22.432,18.249-40.682,40.682-40.682h122.58c22.432,0,40.682,18.249,40.682,40.682
			v122.58c0,22.432-18.249,40.682-40.682,40.682h-122.58c-22.432,0-40.682-18.25-40.682-40.682v-46.7
			c0-4.139-3.356-7.495-7.495-7.495c-4.139,0-7.495,3.356-7.495,7.495v46.7c0,30.697,24.974,55.671,55.672,55.671h122.58
			c30.698,0,55.672-24.974,55.672-55.671v-122.58C505.358,289.827,480.384,264.853,449.686,264.853z"/>
	</g>
</g>
<g>
</g>
<g>
</g>
<g>
</g>
<g>
</g>
<g>
</g>
<g>
</g>
<g>
</g>
<g>
</g>
<g>
</g>
<g>
</g>
<g>
</g>
<g>
</g>
<g>
</g>
<g>
</g>
<g>
</g>
</svg>
