<svg id="Capa_1" enable-background="new 0 0 496 496" height="512" viewBox="0 0 496 496" width="512" xmlns="http://www.w3.org/2000/svg"><g><path d="m496 136v-96c-.026-22.08-17.92-39.974-40-40h-96c-22.08.026-39.974 17.92-40 40v96c.035 12.64 6.064 24.513 16.248 32-3.138 2.33-5.918 5.11-8.248 8.248-7.487-10.184-19.36-16.213-32-16.248h-59.32l23.6-23.6c15.621-15.621 15.621-40.947 0-56.568l-67.88-67.88c-15.621-15.621-40.947-15.621-56.568 0l-67.88 67.88c-15.621 15.621-15.621 40.947 0 56.568l23.6 23.6h-51.552c-22.08.026-39.974 17.92-40 40v96c.035 12.64 6.064 24.513 16.248 32-10.184 7.487-16.213 19.36-16.248 32v96c.026 22.08 17.92 39.974 40 40h96c12.64-.035 24.513-6.064 32-16.248 7.487 10.184 19.36 16.213 32 16.248h96c12.64-.035 24.513-6.064 32-16.248 7.487 10.184 19.36 16.213 32 16.248h96c22.08-.026 39.974-17.92 40-40v-96c-.035-12.64-6.064-24.513-16.248-32 10.184-7.487 16.213-19.36 16.248-32v-96c-.035-12.64-6.064-24.513-16.248-32 10.184-7.487 16.213-19.36 16.248-32zm-200 40c13.255 0 24 10.745 24 24v96c0 13.255-10.745 24-24 24h-96c-13.255 0-24-10.745-24-24v-81.984c6.177-1.86 11.806-5.199 16.4-9.728l28.28-28.288zm40.248 152c-3.138 2.33-5.918 5.109-8.248 8.248-2.33-3.138-5.109-5.918-8.248-8.248 3.138-2.33 5.918-5.109 8.248-8.248 2.33 3.139 5.109 5.918 8.248 8.248zm-168.248 8.248c-2.33-3.138-5.11-5.918-8.248-8.248 3.138-2.33 5.918-5.109 8.248-8.248 2.33 3.138 5.11 5.918 8.248 8.248-3.138 2.33-5.918 5.109-8.248 8.248zm-95.768-228.128c-.016-6.368 2.516-12.478 7.032-16.968l67.888-67.888c9.372-9.369 24.564-9.369 33.936 0l67.88 67.888c9.369 9.372 9.369 24.564 0 33.936l-67.88 67.888c-9.5 9.055-24.436 9.055-33.936 0l-67.888-67.888c-4.513-4.492-7.045-10.601-7.032-16.968zm-56.232 187.88v-96c0-13.255 10.745-24 24-24h67.552l28.28 28.288c6.505 6.452 15.046 10.45 24.168 11.312v80.4c0 13.255-10.745 24-24 24h-96c-13.255 0-24-10.745-24-24zm120 184h-96c-13.255 0-24-10.745-24-24v-96c0-13.255 10.745-24 24-24h96c13.255 0 24 10.745 24 24v96c0 13.255-10.745 24-24 24zm160 0h-96c-13.255 0-24-10.745-24-24v-96c0-13.255 10.745-24 24-24h96c13.255 0 24 10.745 24 24v96c0 13.255-10.745 24-24 24zm184-120v96c0 13.255-10.745 24-24 24h-96c-13.255 0-24-10.745-24-24v-96c0-13.255 10.745-24 24-24h96c13.255 0 24 10.745 24 24zm0-160v96c0 13.255-10.745 24-24 24h-96c-13.255 0-24-10.745-24-24v-96c0-13.255 10.745-24 24-24h96c13.255 0 24 10.745 24 24zm0-64c0 13.255-10.745 24-24 24h-96c-13.255 0-24-10.745-24-24v-96c0-13.255 10.745-24 24-24h96c13.255 0 24 10.745 24 24z"/><path d="m192.408 136.4 11.312-11.312-50.92-50.912c-3.174-3.001-8.138-3.001-11.312 0l-11.32 11.32c-1.5 1.5-2.344 3.534-2.344 5.656v22.624h16v-19.312l3.32-3.312z"/><path d="m432 48h-56v16h48v16h-40c-4.418 0-8 3.582-8 8v32c0 4.418 3.582 8 8 8h56v-16h-48v-16h40c4.418 0 8-3.582 8-8v-32c0-4.418-3.582-8-8-8z"/><path d="m440 280v-32c0-4.418-3.582-8-8-8h-40v-16h48v-16h-56c-4.418 0-8 3.582-8 8v32c0 4.418 3.582 8 8 8h40v16h-48v16h56c4.418 0 8-3.582 8-8z"/><path d="m112 368h-48c-4.418 0-8 3.582-8 8v64c0 4.418 3.582 8 8 8h48c4.418 0 8-3.582 8-8v-32c0-4.418-3.582-8-8-8h-40v-16h32v8h16v-16c0-4.418-3.582-8-8-8zm-8 48v16h-32v-16z"/><path d="m96 208h-32v16h32c4.418 0 8 3.582 8 8s-3.582 8-8 8h-16c-4.418 0-8 3.582-8 8s3.582 8 8 8h16c4.418 0 8 3.582 8 8s-3.582 8-8 8h-32v16h32c13.255-.009 23.993-10.762 23.983-24.017-.004-5.898-2.18-11.588-6.111-15.983 8.837-9.88 7.991-25.052-1.889-33.889-4.395-3.931-10.085-6.107-15.983-6.111z"/><path d="m224 256h32v32h16v-32h16v-16h-16v-32h-16v32h-22.24l6.08-30.4-15.68-3.2-8 40c-.884 4.329 1.909 8.555 6.238 9.438.527.108 1.064.162 1.602.162z"/><path d="m272 368h-48c-4.418.003-7.997 3.588-7.994 8.006.001.857.139 1.709.41 2.522l8 24 15.2-5.056-4.512-13.472h26.92l-13.84 62.264 15.632 3.472 16-72c.959-4.313-1.76-8.587-6.073-9.545-.572-.128-1.157-.191-1.743-.191z"/><path d="m400 448h16c13.197.058 23.943-10.593 24.002-23.79.027-5.995-2.201-11.781-6.242-16.21 8.894-9.75 8.2-24.864-1.55-33.758-4.429-4.04-10.215-6.268-16.21-6.242h-16c-13.197-.058-23.943 10.593-24.002 23.79-.027 5.995 2.201 11.781 6.242 16.21-8.894 9.75-8.2 24.864 1.55 33.758 4.429 4.041 10.215 6.269 16.21 6.242zm16-16h-16c-4.418 0-8-3.582-8-8s3.582-8 8-8h16c4.418 0 8 3.582 8 8s-3.582 8-8 8zm-16-48h16c4.418 0 8 3.582 8 8s-3.582 8-8 8h-16c-4.418 0-8-3.582-8-8s3.582-8 8-8z"/></g></svg>