<?xml version="1.0" encoding="utf-8"?>
<!-- Generator: Adobe Illustrator 25.4.1, SVG Export Plug-In . SVG Version: 6.00 Build 0)  -->
<svg version="1.1" id="Layer_1" xmlns="http://www.w3.org/2000/svg" xmlns:xlink="http://www.w3.org/1999/xlink" x="0px" y="0px"
	 viewBox="0 0 512 512" style="enable-background:new 0 0 512 512;" xml:space="preserve">
<path d="M330.9,469.3H181.4c-5.9,0-10.7-4.8-10.7-10.7V255.9h-96c-4.2,0-8.1-2.5-9.8-6.4c-1.7-3.9-0.9-8.4,2-11.6l181.3-192
	c4-4.2,11.5-4.2,15.5,0l181.3,192c2.9,3.1,3.7,7.6,2,11.6c-1.7,3.9-5.6,6.4-9.8,6.4h-96v202.7C341.4,464.5,336.6,469.3,330.9,469.3
	L330.9,469.3z M195.8,434.3h120.4V243.8c0-5.5,4.5-10,10-10h77L256,77.7L108.7,233.7h77c5.5,0,10,4.5,10,10L195.8,434.3L195.8,434.3
	z"/>
</svg>
