<?xml version="1.0" encoding="utf-8"?>
<!-- Generator: Adobe Illustrator 25.4.1, SVG Export Plug-In . SVG Version: 6.00 Build 0)  -->
<svg version="1.1" id="Layer_1" xmlns="http://www.w3.org/2000/svg" xmlns:xlink="http://www.w3.org/1999/xlink" x="0px" y="0px"
	 viewBox="0 0 383.9 487.3" style="enable-background:new 0 0 383.9 487.3;" xml:space="preserve">
<path d="M266.9,426.5H117.4c-5.9,0-10.7-4.8-10.7-10.7V213.1h-96c-4.2,0-8.1-2.5-9.8-6.4s-0.9-8.4,2-11.6l181.3-192
	c4-4.2,11.5-4.2,15.5,0l181.3,192c2.9,3.1,3.7,7.6,2,11.6c-1.7,3.9-5.6,6.4-9.8,6.4h-96v202.7C277.4,421.8,272.6,426.5,266.9,426.5
	L266.9,426.5z"/>
<path d="M271.9,462.2H112.4c-2.9,0-5.3,2.4-5.3,5.3V482c0,2.9,2.4,5.3,5.3,5.3h159.5c2.9,0,5.3-2.4,5.3-5.3v-14.5
	C277.2,464.5,274.8,462.2,271.9,462.2z"/>
</svg>
